<svg xmlns="http://www.w3.org/2000/svg" viewBox="0 0 308.738 61.884"><defs><style>.cls-1{fill:#fff;}</style></defs><g id="Layer_2" data-name="Layer 2"><g id="BOARD_2" data-name="BOARD 2"><path class="cls-1" d="M164.261,53.161a7.735,7.735,0,0,1-4.342,1.572,3.744,3.744,0,0,1-3.107-1.553,7.486,7.486,0,0,1-1.2-4.624V23.473h12.355l1.385-4.455h-13.74V6.738h-2.882a21.458,21.458,0,0,1-8.087,9.585,31.012,31.012,0,0,1-6.027,3.35,32.758,32.758,0,0,1-5.392,1.816v1.984h4.98V51.364a9.2,9.2,0,0,0,3.5,7.375q3.5,2.921,9.94,2.921a27.216,27.216,0,0,0,7.806-1.067,19.076,19.076,0,0,0,6.439-3.333,16.8,16.8,0,0,0,1.709-1.554l-2.674-3.031Q164.6,52.927,164.261,53.161ZM207.31,47.77a23.393,23.393,0,0,1-5.878,5.766,12.478,12.478,0,0,1-7.076,2.208,10.5,10.5,0,0,1-8.012-3.706,14.35,14.35,0,0,1-2.508-4.493,30.781,30.781,0,0,1-1.03-3.968q-.393-2.058-.729-5.541h27.067a28.968,28.968,0,0,0-1.385-8.479,17.061,17.061,0,0,0-5.728-8.106q-4.344-3.593-12.429-3.594a29.344,29.344,0,0,0-13.553,2.921,20.012,20.012,0,0,0-8.611,8.18,24.455,24.455,0,0,0-2.92,12.073,20.686,20.686,0,0,0,1.591,8.143,19.131,19.131,0,0,0,4.643,6.608,21.932,21.932,0,0,0,7.319,4.455,26.568,26.568,0,0,0,9.247,1.647,29.642,29.642,0,0,0,9.715-1.4,21.776,21.776,0,0,0,7-3.931,43.231,43.231,0,0,0,5.9-6.233ZM182.357,31.691q.168-1.854.281-2.565,1.16-7,4.68-7.487,4.268,0,5.353,7.337.113,1.424.225,2.864t.224,2.9H182.077Q182.189,33.543,182.357,31.691Zm65.331-12.9a13.351,13.351,0,0,0-4.53-1.086,5.047,5.047,0,0,0-3.275,1.1,14.947,14.947,0,0,0-2.939,3.575l-4.754,7.75V18.794l-2.209-.937a80.658,80.658,0,0,1-21.712,5.107v2.77c2.185.667,3.683,1.174,4.453,1.5a3.246,3.246,0,0,1,1.666,1.273,5.306,5.306,0,0,1,.393,2.377V48.444a11.3,11.3,0,0,1-1.46,6.252,4.411,4.411,0,0,1-3.819,2.209,8.142,8.142,0,0,1-1.834-.3V60.5q9.284-.861,17-.861,8.049,0,17.708.861V56.605a10.018,10.018,0,0,1-2.358.225,9,9,0,0,1-5.485-1.722q-2.34-1.722-2.339-6.028V35.341l2.321-3.145a4.913,4.913,0,0,1,4.117-2.433,11.392,11.392,0,0,1,4.006,1.048l3.514,1.48,5.5-11.868Zm59.1,38.036q-3.967,0-3.968-7.974l.224-15.8a18.716,18.716,0,0,0-1.722-8.311,12.518,12.518,0,0,0-4.735-5.354,12.284,12.284,0,0,0-6.5-1.834q-6.477,0-15.8,6.589V18.794l-2.133-.937a72.32,72.32,0,0,1-7.75,2.546q-3.669.974-7.076,1.61-2.5.468-5.411.794v3.358s2.4.784,3.2,1.145a2.6,2.6,0,0,1,1.516,1.479,13.811,13.811,0,0,1,.319,3.707V48.631q0,4.456-1.535,6.365a4.72,4.72,0,0,1-3.819,1.909,7.519,7.519,0,0,1-1.834-.225l.15,3.819a126.773,126.773,0,0,1,29.5,0V56.605a12.481,12.481,0,0,1-1.385.15,2.931,2.931,0,0,1-2.34-.973,5.328,5.328,0,0,1-1.123-2.677,25.67,25.67,0,0,1-.281-4.1V27.591a10.581,10.581,0,0,1,5.5-1.834,4.917,4.917,0,0,1,3.687,1.441,7.587,7.587,0,0,1,1.853,4.174,58.933,58.933,0,0,1,.6,9.809q0,5.205-.263,8.161a18.4,18.4,0,0,1-.842,4.53,3.915,3.915,0,0,1-1.5,2.116,4.626,4.626,0,0,1-2.378.542V60.5a120.323,120.323,0,0,1,13.74-.861,126.745,126.745,0,0,1,14.039.861V56.53A7.665,7.665,0,0,1,306.791,56.83ZM131.005,48.856l.224-15.8a18.716,18.716,0,0,0-1.722-8.311,12.513,12.513,0,0,0-4.736-5.354,12.279,12.279,0,0,0-6.5-1.834q-6.477,0-15.8,6.589V18.794l-2.133-.937a72.394,72.394,0,0,1-7.75,2.546q-3.67.974-7.076,1.61t-7.562,1.011v2.508a54.152,54.152,0,0,1,5.353,1.778,2.6,2.6,0,0,1,1.516,1.479,13.811,13.811,0,0,1,.319,3.707V48.631q0,4.456-1.536,6.365a4.716,4.716,0,0,1-3.818,1.909,7.65,7.65,0,0,1-.842-.1v3.626a138.775,138.775,0,0,1,13.945-.79,134.581,134.581,0,0,1,14.448.861v-3.8c-.576.048-.9.061-1.12.061a2.93,2.93,0,0,1-2.34-.973,5.328,5.328,0,0,1-1.123-2.677,25.675,25.675,0,0,1-.281-4.1V27.591a10.577,10.577,0,0,1,5.5-1.834,4.921,4.921,0,0,1,3.688,1.441,7.587,7.587,0,0,1,1.853,4.174,58.956,58.956,0,0,1,.6,9.809q0,5.205-.262,8.161a18.492,18.492,0,0,1-.842,4.53,3.911,3.911,0,0,1-1.5,2.116,4.457,4.457,0,0,1-2.112.631V60.5a115.955,115.955,0,0,1,13.474-.861,126.762,126.762,0,0,1,14.04.861V56.53a7.665,7.665,0,0,1-1.947.3Q131,56.83,131.005,48.856ZM25.5,55.052q-1.424-1.778-1.423-5.972V1.085L21.9,0A92.463,92.463,0,0,1,0,5.2V7.674A41.582,41.582,0,0,1,4.511,9.565a4.162,4.162,0,0,1,1.722,1.46,3.9,3.9,0,0,1,.431,1.928V48.781a10.583,10.583,0,0,1-1.386,5.9A4.35,4.35,0,0,1,1.46,56.755,5.546,5.546,0,0,1,0,56.605V60.5a148.78,148.78,0,0,1,15.237-.861c4.454,0,9.32.278,14.539.8V56.718a5.107,5.107,0,0,1-.8.112A4.311,4.311,0,0,1,25.5,55.052Zm49.232.094q-1.8,0-1.8-4.381V31.073a13.334,13.334,0,0,0-1.778-7,11.379,11.379,0,0,0-5.5-4.548,24.09,24.09,0,0,0-9.415-1.592A43.092,43.092,0,0,0,44.515,19.6a19.6,19.6,0,0,0-8.5,4.7,10.156,10.156,0,0,0-3.108,7.45,12.212,12.212,0,0,0,.562,3.669l14.862-6.028a6.1,6.1,0,0,1-.935-3.145,4.786,4.786,0,0,1,1.235-3.294A4.288,4.288,0,0,1,52,21.564a3.345,3.345,0,0,1,3.013,1.273,7.965,7.965,0,0,1,.842,4.23v5.99q-1.872.637-7.131,2.471t-7.619,2.639a29.625,29.625,0,0,0-4.129,1.684,17.713,17.713,0,0,0-4.2,2.885A8.556,8.556,0,0,0,30.445,46.3a14.319,14.319,0,0,0-.755,4.543q0,10.6,13.44,10.6,5.764,0,8.648-1.872a17.887,17.887,0,0,0,4.305-3.669,6.183,6.183,0,0,0,2.358,3.164,12.393,12.393,0,0,0,4.081,1.965,16.321,16.321,0,0,0,4.381.637,18.483,18.483,0,0,0,7.45-1.779,20.086,20.086,0,0,0,4.041-2.311l-1.923-2.936A4.531,4.531,0,0,1,74.727,55.146ZM55.858,53.461q-1.084,1.685-4,1.685a5.007,5.007,0,0,1-3.819-1.386q-1.311-1.384-1.31-4.53a17.09,17.09,0,0,1,1.291-7.207,10.019,10.019,0,0,1,5.915-5.672,9.2,9.2,0,0,1,1.853-.449c.05,0,.075.051.075.15Z"/></g></g></svg>